<svg width="57" height="57" viewBox="0 0 57 57" fill="none" xmlns="http://www.w3.org/2000/svg">
<g id="construction-plan 1">
<g id="Group">
<path id="Vector" d="M9.16068 41.272H14.1441V12.7165C14.1441 11.382 13.6228 10.131 12.6845 9.18226C11.7463 8.24393 10.4952 7.72266 9.16068 7.72266C6.40832 7.72266 4.16687 9.96417 4.16687 12.7165V43.9201C4.37539 43.6073 4.6256 43.3154 4.89667 43.0444C6.03302 41.8976 7.54473 41.272 9.16068 41.272Z" fill="black"/>
<path id="Vector_2" d="M48.1834 15.6772H47.5355L40.8147 27.8056C40.6528 28.0988 40.4227 28.2953 40.2588 28.4078L35.4614 31.342C35.1977 31.5069 34.8852 31.5971 34.5675 31.5971C33.6339 31.5971 32.8622 30.8355 32.8479 29.8993L32.8 24.3282C32.7929 24.0513 32.8672 23.7535 33.0159 23.4852L33.2808 23.0071H21.9094V32.9043H42.401V27.7404C42.401 27.4522 42.6342 27.2191 42.9223 27.2191C43.2104 27.2191 43.4436 27.4522 43.4436 27.7404V41.092C43.4436 41.3801 43.2104 41.6132 42.9223 41.6132H25.4371C25.149 41.6132 24.9159 41.3801 24.9159 41.092C24.9159 40.8038 25.149 40.5707 25.4371 40.5707H31.4186V33.9468H21.9094V45.4851C21.9094 45.7733 21.6762 46.0064 21.3881 46.0064C21.1 46.0064 20.8668 45.7733 20.8668 45.4851V23.0071H17.6842C17.396 23.0071 17.1629 22.774 17.1629 22.4858C17.1629 22.1977 17.396 21.9646 17.6842 21.9646H33.8585L37.3424 15.6772H15.1867V41.7932C15.1867 42.0851 14.9573 42.3145 14.6654 42.3145H9.16068C7.82624 42.3145 6.57517 42.8357 5.62641 43.7741C4.68815 44.7228 4.16687 45.9738 4.16687 47.2979C4.16687 50.0503 6.40832 52.2917 9.16068 52.2917H48.1834C48.5275 52.2917 48.8507 52.2605 49.153 52.1979C51.4779 51.7392 53.1669 49.6749 53.1669 47.2979V20.6607C53.1669 17.9083 50.9358 15.6772 48.1834 15.6772Z" fill="black"/>
<path id="Vector_3" d="M32.4606 33.9463H42.4003V40.5707H32.4606V33.9463Z" fill="black"/>
<path id="Vector_4" d="M37.6288 25.53L46.7323 9.10617L49.2355 10.4936L40.132 26.9175L37.6288 25.53Z" fill="black"/>
<path id="Vector_5" d="M34.1532 23.6055L43.2567 7.18161L45.8183 8.60144L36.7148 25.0253L34.1532 23.6055Z" fill="black"/>
<path id="Vector_6" d="M33.8898 29.8835C33.8977 30.4098 34.4744 30.7294 34.9176 30.453L39.3955 27.7148L33.8446 24.6392L33.8898 29.8835Z" fill="black"/>
<path id="Vector_7" d="M50.6093 7.97948C51.0969 7.09964 50.7771 5.98492 49.8898 5.49324L47.117 3.9567C46.2371 3.46909 45.1224 3.78891 44.6348 4.66875L43.7422 6.27954L49.7168 9.59002L50.6093 7.97948Z" fill="black"/>
</g>
</g>
</svg>
