<svg width="56" height="57" viewBox="0 0 56 57" fill="none" xmlns="http://www.w3.org/2000/svg">
<g id="consultant-services 1">
<g id="Group">
<path id="Vector" d="M32.9226 39.2881L27.8794 37.313C26.2361 36.6647 25.1731 35.1118 25.1731 33.3553V32.6015C26.8617 30.3852 27.9396 27.1059 27.9396 23.4347C27.9396 23.4045 27.9247 23.3819 27.9172 23.3518L28.6333 19.6655C28.8444 18.595 28.5654 17.4944 27.8719 16.6501C27.1709 15.8058 26.1456 15.3233 25.0525 15.3233L24.6001 14.7052C23.6352 13.3859 21.939 12.7376 19.8435 12.8884C19.0897 12.9261 15.2148 13.2653 13.0438 15.8284C11.8753 17.2079 11.4003 18.9644 11.6265 21.0601C11.634 21.0827 11.634 21.1129 11.6416 21.1355L12.1541 23.5327C12.1692 27.1587 13.2396 30.4003 14.9133 32.6015V33.3553C14.9133 35.1118 13.8503 36.6647 12.2145 37.313L7.15623 39.2881C4.93996 40.1626 3.5 42.2658 3.5 44.6479V51.7567C3.5 52.1713 3.83938 52.5105 4.25385 52.5105H35.8326C36.247 52.5105 36.5864 52.1713 36.5864 51.7567V44.6479C36.5864 42.2658 35.1464 40.1626 32.9226 39.2881ZM13.6694 24.083C14.7324 23.7815 15.5464 22.8693 15.6747 21.7159L15.6823 21.6179C15.7575 20.9621 16.2175 20.4193 16.8355 20.2761C18.9765 19.7785 21.125 19.7861 23.2132 20.2912C23.7861 20.4268 24.2383 20.9319 24.3364 21.5426L24.389 21.8516C24.5701 22.9523 25.3615 23.8116 26.417 24.0906C26.3038 27.2341 25.354 30.0082 23.9293 31.825C23.884 31.8627 23.8538 31.9079 23.8163 31.9532C22.7533 33.2422 21.4567 34.0112 20.0393 34.0112C18.6297 34.0112 17.3256 33.2422 16.2627 31.9456C16.2326 31.9004 16.2024 31.8627 16.1646 31.825C14.74 30.0082 13.7901 27.2341 13.6694 24.083ZM5.00769 51.0028V44.6479C5.00769 42.8915 6.07073 41.3386 7.70652 40.6902L12.7648 38.7152C13.2625 38.5191 13.7147 38.2553 14.1293 37.9387L17.6799 51.0028H5.00769ZM15.6747 36.1747C16.0215 35.549 16.2627 34.8555 16.3607 34.1167C17.4612 35.0138 18.7127 35.5189 20.0393 35.5189C21.3737 35.5189 22.6252 35.0138 23.7257 34.1167C23.8237 34.8931 24.0876 35.6244 24.472 36.2802C21.8789 38.2629 18.2302 38.2252 15.6747 36.1747ZM35.0787 51.0028H22.5874L26.0852 38.0292C26.4699 38.3005 26.8768 38.5418 27.3292 38.7152L32.3723 40.6902C34.0157 41.3386 35.0787 42.8915 35.0787 44.6479V51.0028Z" fill="black"/>
<path id="Vector_2" d="M50.9932 3.5105H33.1346C32.302 3.5105 31.627 4.18548 31.627 5.01819V16.1148C31.627 16.9475 32.302 17.6225 33.1346 17.6225H34.7931V20.979C34.7931 21.7602 35.6143 22.2692 36.3138 21.9217L44.97 17.6225H50.9932C51.826 17.6225 52.5009 16.9475 52.5009 16.1148V5.01819C52.5009 4.18548 51.826 3.5105 50.9932 3.5105ZM39.1581 6.52556H44.9702C45.3865 6.52556 45.724 6.86273 45.724 7.27941C45.724 7.69608 45.3865 8.03325 44.9702 8.03325H39.1581C38.7417 8.03325 38.4042 7.69608 38.4042 7.27941C38.4042 6.86273 38.7417 6.52556 39.1581 6.52556ZM44.9702 14.6073H39.1581C38.7417 14.6073 38.4042 14.2701 38.4042 13.8535C38.4042 13.4368 38.7417 13.0996 39.1581 13.0996H44.9702C45.3865 13.0996 45.724 13.4368 45.724 13.8535C45.724 14.2701 45.3865 14.6073 44.9702 14.6073ZM48.7317 11.3203H35.3966C34.9802 11.3203 34.6427 10.9831 34.6427 10.5664C34.6427 10.1498 34.9802 9.81259 35.3966 9.81259H48.7317C49.148 9.81259 49.4855 10.1498 49.4855 10.5664C49.4855 10.9831 49.148 11.3203 48.7317 11.3203Z" fill="black"/>
</g>
</g>
</svg>
