<svg width="30" height="31" viewBox="0 0 30 31" fill="none" xmlns="http://www.w3.org/2000/svg">
<g id="Facebook svg" clip-path="url(#clip0_194_167)">
<g id="g10">
<g id="g12">
<path id="path14" d="M30 15.0103C30 6.72607 23.2843 0.0103493 15 0.0103493C6.71572 0.0103493 0 6.72607 0 15.0103C0 22.4973 5.48528 28.7028 12.6562 29.8281V19.3463H8.84766V15.0103H12.6562V11.7057C12.6562 7.94629 14.8956 5.86972 18.322 5.86972C19.9631 5.86972 21.6797 6.16269 21.6797 6.16269V9.8541H19.7882C17.9249 9.8541 17.3438 11.0104 17.3438 12.1966V15.0103H21.5039L20.8389 19.3463H17.3438V29.8281C24.5147 28.7028 30 22.4973 30 15.0103Z" fill="#1877F2"/>
<path id="path16" d="M20.8389 19.3462L21.5039 15.0103H17.3438V12.1965C17.3438 11.0103 17.9249 9.854 19.7882 9.854H21.6797V6.1626C21.6797 6.1626 19.9631 5.86963 18.322 5.86963C14.8956 5.86963 12.6563 7.94619 12.6563 11.7056V15.0103H8.84766V19.3462H12.6563V29.828C13.4199 29.9478 14.2027 30.0103 15 30.0103C15.7973 30.0103 16.5801 29.9478 17.3438 29.828V19.3462H20.8389Z" fill="white"/>
</g>
</g>
</g>
<defs>
<clipPath id="clip0_194_167">
<rect width="30" height="30" fill="white" transform="translate(0 0.0102539)"/>
</clipPath>
</defs>
</svg>
