<svg width="57" height="57" viewBox="0 0 57 57" fill="none" xmlns="http://www.w3.org/2000/svg">
<g id="idea 1">
<g id="Group">
<g id="Group_2">
<path id="Vector" d="M23.0847 42.8467C22.9725 42.8467 22.8592 42.8659 22.7485 42.9061L12.3752 46.6831C12.128 46.7731 11.9298 46.9573 11.8169 47.2012C11.6951 47.4647 11.6855 47.7643 11.7899 48.0452L13.0144 51.3435L25.5103 47.2064L24.1014 43.5847C23.9324 43.1294 23.5165 42.8467 23.0847 42.8467ZM16.6995 49.2474C16.633 49.4397 16.4718 49.619 16.288 49.7058C16.1884 49.7526 16.0802 49.7748 15.9714 49.7748C15.6732 49.7748 15.371 49.6102 15.2363 49.3412C15.1462 49.1611 15.1407 48.9253 15.2053 48.7345C15.2695 48.5437 15.4164 48.3596 15.5972 48.2706C15.7791 48.1817 16.0182 48.1684 16.2094 48.2341C16.4002 48.3009 16.5799 48.4629 16.6666 48.6459C16.7507 48.8245 16.764 49.0603 16.6995 49.2474Z" fill="black"/>
</g>
<g id="Group_3">
<path id="Vector_2" d="M12.3828 45.0722L21.6157 41.7104L21.0739 40.2505C20.5436 38.8217 19.6093 37.5766 18.3723 36.6496C16.9028 35.5484 15.7921 34.0668 15.1603 32.3652L13.7532 28.5756C13.5406 28.0022 12.8738 27.7143 12.2642 27.9376C11.9605 28.0483 11.7202 28.266 11.5888 28.5502C11.4678 28.8122 11.4553 29.1022 11.5534 29.3665L14.1078 36.2459C14.2532 36.637 14.0536 37.0721 13.6624 37.2175C13.2712 37.3629 12.8365 37.1632 12.6908 36.7721L10.1364 29.8927C9.94077 29.3654 9.93395 28.8018 10.0937 28.2686L9.3197 17.6628C9.30789 16.7934 8.62667 16.1273 7.76684 16.1004C7.29154 16.0863 6.81697 16.2716 6.48263 16.6133C6.1649 16.9373 6.0029 17.3565 6.02541 17.7938L5.8313 34.721C5.93832 36.7592 6.92214 38.7405 8.52999 40.1092L9.63005 41.0458C10.8334 42.0702 11.7575 43.3869 12.3018 44.8538L12.3828 45.0722Z" fill="black"/>
</g>
<g id="Group_4">
<path id="Vector_3" d="M50.6401 17.8425C50.6637 17.3572 50.5017 16.938 50.184 16.614C49.85 16.2727 49.3825 16.0848 48.9002 16.1011C48.0403 16.128 47.3588 16.7945 47.3488 17.6178L46.5729 28.2692C46.7327 28.8024 46.7259 29.3661 46.5303 29.8934L43.9763 36.7728C43.8312 37.164 43.395 37.3636 43.0046 37.2182C42.6134 37.0728 42.4138 36.6381 42.5592 36.2466L45.1132 29.3672C45.2114 29.103 45.1988 28.8129 45.0778 28.5509C44.9464 28.2668 44.7062 28.049 44.4021 27.9379C43.794 27.7184 43.1264 28.0033 42.9135 28.5764L41.5064 32.3659C40.8746 34.0675 39.7638 35.5491 38.2944 36.6503C37.0574 37.5773 36.123 38.8224 35.5927 40.2512L35.0509 41.711L44.2838 45.0728L44.3648 44.8545C44.9099 43.3872 45.8339 42.0702 47.037 41.0461L48.1367 40.1099C49.7441 38.7412 50.7283 36.7599 50.8368 34.6738L50.6401 17.8425Z" fill="black"/>
</g>
<g id="Group_5">
<path id="Vector_4" d="M44.2867 46.682L33.9138 42.9051C33.3798 42.7095 32.7735 43.0091 32.5646 43.573L31.1516 47.2053L43.6479 51.3425L44.872 48.0441C44.9764 47.7633 44.9668 47.4636 44.8451 47.2002C44.7321 46.9562 44.534 46.7721 44.2867 46.682ZM41.4279 49.335C41.3401 49.5143 41.1618 49.6719 40.9732 49.7372C40.8939 49.7645 40.8064 49.7782 40.7182 49.7782C40.5943 49.7782 40.4692 49.7516 40.3636 49.6999C40.1846 49.6121 40.0278 49.4346 39.9625 49.2464C39.8961 49.0541 39.9119 48.8117 40.0027 48.6298C40.0905 48.4541 40.2669 48.298 40.4525 48.2331C40.6441 48.1677 40.8836 48.1807 41.0648 48.2696C41.2448 48.3582 41.391 48.5412 41.4559 48.7309C41.5209 48.9206 41.5164 49.1553 41.4279 49.335Z" fill="black"/>
</g>
<g id="Group_6">
<path id="Vector_5" d="M26.242 20.9041C25.5054 20.9041 24.9065 21.503 24.9065 22.2392C24.9065 22.9758 25.5054 23.5747 26.242 23.5747H27.5771V22.2392C27.5771 21.503 26.9782 20.9041 26.242 20.9041Z" fill="black"/>
</g>
<g id="Group_7">
<path id="Vector_6" d="M24.9065 34.1346C24.9065 34.6188 25.3002 35.0125 25.7844 35.0125H30.881C31.3652 35.0125 31.7593 34.6188 31.7593 34.1346C31.7593 33.6505 31.3652 33.2563 30.881 33.2563H25.7844C25.3002 33.2563 24.9065 33.6505 24.9065 34.1346Z" fill="black"/>
</g>
<g id="Group_8">
<path id="Vector_7" d="M25.4286 31.7448H25.787H27.5797V25.0865H26.2446C24.6747 25.0865 23.3975 23.8093 23.3975 22.2395C23.3975 20.6696 24.6747 19.3928 26.2446 19.3928C27.074 19.3928 27.8147 19.7553 28.3355 20.323C28.8562 19.7553 29.5969 19.3928 30.4264 19.3928C31.9962 19.3928 33.2734 20.6696 33.2734 22.2395C33.2734 23.8093 31.9962 25.0865 30.4264 25.0865H29.0912V31.7448H30.8836H31.2426C31.3851 29.4871 32.4165 27.3342 34.183 25.6323C35.8466 24.0296 36.7629 21.8752 36.7629 19.5655C36.7629 17.1709 35.7411 14.8826 33.9591 13.2873C32.1519 11.6687 29.8178 10.9266 27.3719 11.1964C23.6045 11.6134 20.4999 14.6324 19.9892 18.3743C19.6113 21.1449 20.5516 23.8196 22.5691 25.7116C24.2636 27.3014 25.288 29.4757 25.4286 31.7448Z" fill="black"/>
</g>
<g id="Group_9">
<path id="Vector_8" d="M30.8809 36.5244H25.7843H25.3411C25.3794 38.1415 26.7068 39.4453 28.3328 39.4453C29.9587 39.4453 31.2861 38.1415 31.3245 36.5244H30.8809Z" fill="black"/>
</g>
<g id="Group_10">
<path id="Vector_9" d="M31.7578 22.2392C31.7578 21.503 31.1589 20.9041 30.4223 20.9041C29.6861 20.9041 29.0872 21.503 29.0872 22.2392V23.5747H30.4223C31.1589 23.5747 31.7578 22.9758 31.7578 22.2392Z" fill="black"/>
</g>
<g id="Group_11">
<path id="Vector_10" d="M28.33 7.44692C28.7474 7.44692 29.0857 7.10852 29.0857 6.69115V5.43204C29.0857 5.01467 28.7474 4.67627 28.33 4.67627C27.9126 4.67627 27.5742 5.01467 27.5742 5.43204V6.69115C27.5742 7.10852 27.9126 7.44692 28.33 7.44692Z" fill="black"/>
</g>
<g id="Group_12">
<path id="Vector_11" d="M34.3928 9.07162C34.512 9.14026 34.6419 9.17274 34.77 9.17274C35.0312 9.17274 35.2851 9.03731 35.4254 8.79486L36.0549 7.70438C36.2634 7.34274 36.1398 6.88072 35.7782 6.67185C35.4154 6.46335 34.9545 6.58697 34.7456 6.94862L34.1161 8.03909C33.9076 8.40074 34.0312 8.86276 34.3928 9.07162Z" fill="black"/>
</g>
<g id="Group_13">
<path id="Vector_12" d="M39.4852 13.8867C39.6136 13.8867 39.7435 13.8543 39.8624 13.7852L40.9528 13.1553C41.3145 12.9468 41.4381 12.4844 41.2292 12.1232C41.0207 11.7615 40.5565 11.6371 40.1971 11.8468L39.1066 12.4767C38.7449 12.6852 38.6213 13.1476 38.8302 13.5088C38.97 13.7513 39.2239 13.8867 39.4852 13.8867Z" fill="black"/>
</g>
<g id="Group_14">
<path id="Vector_13" d="M40.4554 19.571C40.4554 19.9883 40.7938 20.3267 41.2112 20.3267H42.4703C42.8877 20.3267 43.2261 19.9883 43.2261 19.571C43.2261 19.1536 42.8877 18.8152 42.4703 18.8152H41.2112C40.7938 18.8152 40.4554 19.1536 40.4554 19.571Z" fill="black"/>
</g>
<g id="Group_15">
<path id="Vector_14" d="M21.239 8.79486C21.3793 9.03731 21.6331 9.17274 21.8944 9.17274C22.0225 9.17274 22.1524 9.14026 22.2716 9.07162C22.6332 8.86276 22.7568 8.40074 22.5483 8.03909L21.9188 6.94862C21.7095 6.58697 21.2475 6.46335 20.8862 6.67185C20.5246 6.88072 20.401 7.34274 20.6095 7.70438L21.239 8.79486Z" fill="black"/>
</g>
<g id="Group_16">
<path id="Vector_15" d="M15.7122 13.1553L16.8027 13.7852C16.9215 13.8543 17.0514 13.8867 17.1798 13.8867C17.4411 13.8867 17.695 13.7513 17.8348 13.5088C18.0437 13.1476 17.9201 12.6852 17.5584 12.4767L16.4679 11.8468C16.107 11.6371 15.6439 11.7615 15.4358 12.1232C15.2269 12.4844 15.3505 12.9468 15.7122 13.1553Z" fill="black"/>
</g>
<g id="Group_17">
<path id="Vector_16" d="M14.1935 20.3267H15.4526C15.87 20.3267 16.2084 19.9883 16.2084 19.571C16.2084 19.1536 15.87 18.8152 15.4526 18.8152H14.1935C13.7761 18.8152 13.4377 19.1536 13.4377 19.571C13.4377 19.9883 13.7761 20.3267 14.1935 20.3267Z" fill="black"/>
</g>
</g>
</g>
</svg>
