<svg width="30" height="29" viewBox="0 0 30 29" fill="none" xmlns="http://www.w3.org/2000/svg">
<g id="zalo-seeklogo.com 1" clip-path="url(#clip0_194_172)">
<path id="Vector" d="M4.30504 0.0756836H25.6954C28.0359 0.0756836 29.9331 1.97285 29.9331 4.31334V24.0673C29.9331 26.4078 28.0359 28.305 25.6954 28.305H4.30504C1.96455 28.305 0.0673828 26.4078 0.0673828 24.0673V4.31334C0.0673828 1.97285 1.96455 0.0756836 4.30504 0.0756836Z" fill="white" stroke="#0180C7" stroke-width="0.130389" stroke-miterlimit="10"/>
<path id="Vector_2" d="M5.387 24.8428C5.26965 24.7907 5.18489 24.732 5.3218 24.6147C5.40656 24.5495 5.49783 24.4908 5.5891 24.4321C6.44315 23.878 7.24505 23.2717 7.77312 22.3785C8.21645 21.6353 8.14473 21.1985 7.59058 20.6508C4.50035 17.5606 3.1443 13.8641 3.82232 9.49602C4.20697 7.03166 5.33484 4.89979 6.97775 3.04826C7.96871 1.92691 9.14873 1.02071 10.4396 0.26445C10.5178 0.218813 10.6287 0.205774 10.6417 0.0884239C10.6156 0.0232292 10.57 0.0427876 10.5309 0.0427876C8.3338 0.0427876 6.13674 -0.00284865 3.94619 0.0558266C1.84693 0.121021 0.0345137 1.74437 0.0410332 4.07182C0.0540721 10.8716 0.0410332 17.6714 0.0410332 24.4778C0.0410332 26.5901 1.65134 28.3568 3.75713 28.4351C5.53695 28.5068 7.31676 28.4481 9.1031 28.4416C9.23348 28.4481 9.36387 28.4546 9.49426 28.4546H18.9084C21.2554 28.4546 23.6024 28.4677 25.9494 28.4546C28.1269 28.4546 29.8937 26.6944 29.8937 24.5234V24.4843V20.6704C29.8937 20.5791 29.9263 20.4813 29.8676 20.3835C29.7503 20.39 29.7046 20.4878 29.6394 20.553C28.3746 21.8243 26.8817 22.8479 25.2453 23.5715C21.2358 25.3383 17.1546 25.4622 13.0148 24.041C12.6562 23.9106 12.265 23.8975 11.8934 23.9888C11.3458 24.1257 10.8047 24.2887 10.2636 24.4517C8.67281 24.9472 7.04946 25.1688 5.387 24.8428ZM10.1136 13.8575C10.2244 13.7141 10.2831 13.6294 10.3483 13.5446C11.2024 12.4624 12.0564 11.3801 12.9105 10.2914C13.1582 9.97846 13.4059 9.659 13.5624 9.28087C13.745 8.85059 13.5494 8.44638 13.106 8.28991C12.9105 8.23124 12.7018 8.20516 12.4932 8.2182C11.3328 8.21168 10.1658 8.21168 9.0053 8.2182C8.84232 8.2182 8.67933 8.23776 8.52286 8.27688C8.15777 8.36815 7.93611 8.73976 8.02738 9.11137C8.09258 9.35911 8.28816 9.55469 8.5359 9.61337C8.69237 9.65248 8.85536 9.67204 9.01834 9.66552C9.72244 9.67204 10.4331 9.66552 11.1372 9.67204C11.2154 9.67204 11.3132 9.61989 11.3719 9.73724C11.3132 9.81547 11.2545 9.8937 11.1958 9.96542C10.1853 11.2432 9.18133 12.5276 8.17081 13.8054C7.92307 14.1248 7.79268 14.4769 7.97523 14.8681C8.15777 15.2592 8.52938 15.3309 8.90751 15.357C9.20741 15.3766 9.51382 15.3635 9.82024 15.3635C10.8764 15.3635 11.926 15.3701 12.9822 15.357C13.5429 15.3505 13.8427 15.0115 13.7841 14.4899C13.7384 14.0792 13.4581 13.8641 12.9365 13.8575C12.0173 13.851 11.0981 13.8575 10.1136 13.8575ZM17.6762 10.4283C16.8613 9.71768 15.9616 9.67204 15.0814 10.1936C14.0123 10.8195 13.6211 11.843 13.7515 13.0296C13.8753 14.1379 14.3578 15.0441 15.5183 15.4157C16.2419 15.6504 16.9134 15.5656 17.5067 15.0832C17.6632 14.9593 17.7088 14.9854 17.8196 15.1223C18.0348 15.3961 18.4064 15.5004 18.7323 15.3766C19.0583 15.2788 19.2735 14.9789 19.2735 14.6399C19.28 13.336 19.2865 12.0321 19.2735 10.7282C19.2669 10.2066 18.778 9.87414 18.2695 9.97846C17.9891 10.0371 17.8327 10.2262 17.6762 10.4283ZM22.1942 12.847C22.1681 14.4769 23.5176 15.7091 25.2127 15.5396C26.7709 15.3831 27.7814 14.2161 27.7292 12.5667C27.6771 10.9368 26.4644 9.82199 24.802 9.87415C23.2438 9.91978 22.142 11.1715 22.1942 12.847ZM21.6205 11.5496C21.6205 10.5261 21.627 9.50906 21.6205 8.4855C21.6205 7.96394 21.288 7.63797 20.7925 7.64449C20.3101 7.65101 19.9906 7.97698 19.9841 8.47898C19.9776 8.78539 19.9841 9.08529 19.9841 9.3917V14.5747C19.9841 14.9789 20.2318 15.3309 20.5578 15.4157C21.0076 15.5396 21.4705 15.2723 21.5879 14.8224C21.6074 14.7442 21.6205 14.666 21.614 14.5812C21.627 13.5707 21.6205 12.5602 21.6205 11.5496Z" fill="#FDFEFE"/>
<path id="Vector_3" d="M9.09624 28.4483C7.31643 28.4483 5.53009 28.5069 3.75028 28.4417C1.64449 28.357 0.0341797 26.5902 0.0341797 24.4844C0.0341797 17.6846 0.0472186 10.8848 0.0341797 4.07848C0.0341797 1.75103 1.85311 0.127685 3.94586 0.0690101C6.1364 0.0103349 8.33346 0.0559712 10.5305 0.0559712C10.5696 0.0559712 10.6218 0.0364128 10.6414 0.101607C10.6283 0.218958 10.511 0.231997 10.4393 0.277633C9.1484 1.03389 7.96837 1.9401 6.97741 3.06145C5.34103 4.91297 4.20664 7.03832 3.82199 9.5092C3.14397 13.8707 4.50654 17.5738 7.59024 20.664C8.13788 21.2182 8.20959 21.6484 7.77279 22.3917C7.24471 23.2848 6.44282 23.8911 5.58877 24.4453C5.49749 24.4975 5.40622 24.5627 5.31495 24.6213C5.17804 24.7387 5.26279 24.7974 5.38014 24.8495C5.40622 24.9082 5.43882 24.9603 5.47794 25.0125C6.22767 25.6775 6.9383 26.3881 7.675 27.0661C8.02053 27.3856 8.36606 27.7181 8.69855 28.0506C8.83546 28.1744 9.06364 28.2136 9.09624 28.4483Z" fill="#0180C7"/>
<path id="Vector_4" d="M9.09696 28.448C9.06436 28.2198 8.83618 28.1807 8.69927 28.0438C8.36678 27.7048 8.02124 27.3788 7.67571 27.0594C6.93901 26.3814 6.22839 25.6707 5.47865 25.0057C5.43953 24.9536 5.40694 24.9014 5.38086 24.8428C7.04332 25.1687 8.66667 24.9471 10.2639 24.4581C10.8051 24.2951 11.3462 24.1321 11.8938 23.9952C12.2654 23.8974 12.6566 23.917 13.0152 24.0474C17.1485 25.4686 21.2297 25.3382 25.2457 23.578C26.8821 22.8543 28.375 21.8373 29.6398 20.566C29.705 20.5008 29.7506 20.403 29.868 20.3965C29.9267 20.4878 29.8941 20.5855 29.8941 20.6833V24.4972C29.9071 26.6747 28.1599 28.448 25.9824 28.4676H25.9498C23.6028 28.4806 21.2558 28.4676 18.9088 28.4676H9.48812C9.35773 28.4545 9.22735 28.448 9.09696 28.448Z" fill="#0172B1"/>
<path id="Vector_5" d="M10.1136 13.8574C11.0981 13.8574 12.0238 13.8509 12.9431 13.8574C13.4581 13.864 13.7385 14.0791 13.7906 14.4898C13.8493 15.0049 13.5494 15.3504 12.9887 15.3569C11.9326 15.37 10.8829 15.3634 9.82678 15.3634C9.52037 15.3634 9.22047 15.3765 8.91406 15.3569C8.53593 15.3374 8.16432 15.2591 7.98177 14.868C7.79923 14.4768 7.92962 14.1247 8.17736 13.8053C9.18136 12.5275 10.1919 11.2431 11.2024 9.96531C11.2611 9.88708 11.3197 9.80885 11.3784 9.73713C11.3132 9.6263 11.222 9.67846 11.1437 9.67194C10.4396 9.66542 9.72899 9.67194 9.02489 9.66542C8.8619 9.66542 8.69892 9.64586 8.54245 9.61326C8.17084 9.52851 7.94266 9.1569 8.02741 8.79181C8.08609 8.54407 8.28167 8.34197 8.52941 8.28329C8.68588 8.24417 8.84886 8.22462 9.01185 8.22462C10.1723 8.2181 11.3393 8.2181 12.4998 8.22462C12.7084 8.2181 12.9105 8.24417 13.1126 8.29633C13.5559 8.44628 13.745 8.857 13.569 9.28729C13.4125 9.6589 13.1648 9.97835 12.917 10.2978C12.063 11.3866 11.2089 12.4688 10.3549 13.5445C10.2831 13.6293 10.218 13.714 10.1136 13.8574Z" fill="#0180C7"/>
<path id="Vector_6" d="M17.6763 10.4283C17.8327 10.2262 17.9957 10.0371 18.263 9.98494C18.778 9.88063 19.2605 10.2131 19.267 10.7347C19.2866 12.0386 19.28 13.3425 19.267 14.6464C19.267 14.9854 19.0453 15.2853 18.7259 15.3831C18.3999 15.5069 18.0283 15.4091 17.8132 15.1288C17.7023 14.9919 17.6567 14.9658 17.5002 15.0897C16.907 15.5721 16.2354 15.6569 15.5118 15.4222C14.3513 15.0441 13.8754 14.1378 13.745 13.0361C13.6081 11.843 14.0058 10.826 15.075 10.2001C15.9616 9.67201 16.8613 9.71765 17.6763 10.4283ZM15.3684 12.8079C15.3814 13.0947 15.4727 13.3685 15.6422 13.5967C15.9942 14.0661 16.6657 14.1639 17.1417 13.8119C17.2199 13.7532 17.2916 13.6815 17.3568 13.5967C17.7219 13.1013 17.7219 12.2863 17.3568 11.7908C17.1743 11.5366 16.8874 11.3866 16.581 11.3801C15.8638 11.3345 15.3618 11.8886 15.3684 12.8079ZM22.1942 12.847C22.1421 11.1715 23.2439 9.91975 24.8085 9.87411C26.471 9.82196 27.6836 10.9368 27.7358 12.5667C27.7879 14.2161 26.7774 15.3831 25.2193 15.5395C23.5177 15.709 22.1682 14.4769 22.1942 12.847ZM23.8306 12.6905C23.8176 13.0165 23.9154 13.336 24.111 13.6032C24.4695 14.0727 25.141 14.1639 25.6104 13.7988C25.6822 13.7467 25.7408 13.6815 25.7995 13.6163C26.1776 13.1208 26.1776 12.2863 25.806 11.7908C25.6235 11.5431 25.3366 11.3866 25.0302 11.3801C24.3261 11.341 23.8306 11.8756 23.8306 12.6905ZM21.6205 11.5496C21.6205 12.5601 21.627 13.5707 21.6205 14.5812C21.627 15.0441 21.262 15.4287 20.7991 15.4417C20.7208 15.4417 20.6361 15.4352 20.5579 15.4157C20.2319 15.3309 19.9841 14.9854 19.9841 14.5746V9.39167C19.9841 9.08526 19.9776 8.78536 19.9841 8.47895C19.9907 7.97695 20.3101 7.65097 20.7926 7.65097C21.288 7.64446 21.6205 7.97043 21.6205 8.49199C21.627 9.50902 21.6205 10.5326 21.6205 11.5496Z" fill="#0180C7"/>
<path id="Vector_7" d="M15.3683 12.8078C15.3618 11.8886 15.8638 11.3344 16.5745 11.3735C16.8809 11.3866 17.1677 11.5365 17.3503 11.7908C17.7154 12.2797 17.7154 13.1012 17.3503 13.5967C16.9982 14.0661 16.3267 14.1639 15.8508 13.8118C15.7726 13.7531 15.7008 13.6814 15.6356 13.5967C15.4727 13.3685 15.3814 13.0947 15.3683 12.8078ZM23.8306 12.6905C23.8306 11.882 24.3261 11.3409 25.0302 11.38C25.3366 11.3866 25.6235 11.543 25.806 11.7908C26.1776 12.2862 26.1776 13.1273 25.7995 13.6162C25.4344 14.0791 24.7564 14.1573 24.2935 13.7922C24.2218 13.7401 24.1631 13.6749 24.111 13.6032C23.9154 13.3359 23.8241 13.0164 23.8306 12.6905Z" fill="#FDFEFE"/>
</g>
<defs>
<clipPath id="clip0_194_172">
<rect width="30" height="28.464" fill="white" transform="translate(0 0.0102539)"/>
</clipPath>
</defs>
</svg>
